<svg xmlns="http://www.w3.org/2000/svg" version="1.1"
     viewBox="1.7300000190734863 2.544480085372925 339.0199890136719 472.4967956542969">
    <path fill="#005CE8"
          d="&#10;  M 198.67 66.58&#10;  C 197.43 65.45 196.40 64.16 195.11 63.16&#10;  C 186.20 56.18 179.69 47.75 169.58 41.70&#10;  Q 169.17 41.45 168.78 41.74&#10;  C 157.25 50.65 145.27 60.14 135.64 71.37&#10;  C 128.95 79.17 121.70 87.41 117.20 96.69&#10;  C 112.11 107.21 106.82 118.34 104.76 129.92&#10;  C 102.77 141.14 101.55 151.55 101.53 163.51&#10;  Q 101.46 193.87 101.50 225.09&#10;  A 1.41 1.41 0.0 0 0 102.91 226.50&#10;  Q 182.15 226.50 261.50 226.50&#10;  C 266.89 226.50 271.88 233.27 273.43 237.88&#10;  Q 275.14 242.99 273.16 247.92&#10;  C 269.97 255.83 263.63 257.11 255.21 257.23&#10;  C 201.70 257.97 151.92 257.12 88.33 257.27&#10;  Q 81.63 257.29 78.35 255.91&#10;  C 68.95 251.94 70.25 244.40 70.10 233.81&#10;  Q 69.54 194.52 70.25 155.24&#10;  C 70.74 128.45 77.06 105.09 89.35 81.39&#10;  Q 90.74 78.71 93.70 74.49&#10;  C 100.31 65.08 106.12 54.78 114.48 46.71&#10;  C 122.90 38.58 130.70 30.42 140.10 22.85&#10;  C 143.64 20.00 147.58 17.72 150.74 15.11&#10;  Q 159.09 8.22 166.99 2.99&#10;  C 170.87 0.43 180.72 9.63 183.49 12.10&#10;  C 187.68 15.85 192.32 18.22 196.43 21.84&#10;  C 209.21 33.08 222.11 43.68 232.74 56.79&#10;  C 237.41 62.54 245.82 71.15 247.57 77.09&#10;  C 251.44 90.17 230.97 102.32 221.70 91.69&#10;  C 217.65 87.05 213.58 83.06 209.53 78.07&#10;  Q 204.54 71.93 198.67 66.58&#10;  Z"/>
    <rect fill="#005CE8" x="-46.78" y="-15.42" transform="translate(227.09,165.91) rotate(0.2)" width="93.56"
          height="30.84" rx="14.82"/>
    <rect fill="#005CE8" x="69.53" y="301.49" width="204.38" height="30.74" rx="13.30"/>
    <path fill="#03132B"
          d="&#10;  M 55.45 461.53&#10;  L 55.82 473.40&#10;  A 0.82 0.82 0.0 0 1 55.00 474.25&#10;  L 2.73 474.25&#10;  A 0.82 0.82 0.0 0 1 1.91 473.43&#10;  L 1.73 389.67&#10;  A 0.82 0.82 0.0 0 1 2.53 388.85&#10;  L 13.93 388.52&#10;  A 0.82 0.82 0.0 0 1 14.77 389.34&#10;  L 14.71 459.94&#10;  A 0.82 0.82 0.0 0 0 15.53 460.76&#10;  L 54.63 460.74&#10;  A 0.82 0.82 0.0 0 1 55.45 461.53&#10;  Z"/>
    <path fill="#03132B"
          d="&#10;  M 271.25 458.50&#10;  L 231.73 458.50&#10;  Q 231.25 458.50 231.08 458.95&#10;  L 226.04 472.59&#10;  A 1.66 1.65 -79.3 0 1 224.46 473.67&#10;  L 210.92 473.53&#10;  A 0.55 0.55 0.0 0 1 210.42 472.76&#10;  Q 215.48 461.19 220.93 449.65&#10;  C 225.85 439.22 230.36 427.69 235.42 416.83&#10;  C 239.61 407.86 242.72 398.99 246.30 390.01&#10;  A 2.40 2.39 10.8 0 1 248.53 388.50&#10;  L 257.26 388.50&#10;  Q 258.27 388.50 258.72 389.41&#10;  Q 265.83 403.73 270.68 419.01&#10;  C 273.69 428.50 278.25 437.06 282.32 445.94&#10;  C 285.83 453.60 287.90 462.26 291.10 470.72&#10;  Q 291.87 472.75 289.70 472.75&#10;  L 277.61 472.75&#10;  A 2.37 2.36 82.8 0 1 275.34 470.98&#10;  L 272.34 459.34&#10;  Q 272.12 458.50 271.25 458.50&#10;  Z&#10;  M 236.97 444.98&#10;  A 0.86 0.86 0.0 0 0 237.75 446.18&#10;  L 267.19 446.54&#10;  A 0.86 0.86 0.0 0 0 268.00 445.36&#10;  L 253.72 409.01&#10;  A 0.86 0.86 0.0 0 0 252.13 408.99&#10;  L 236.97 444.98&#10;  Z"/>
    <path fill="#03132B"
          d="&#10;  M 73.69 466.81&#10;  C 66.64 460.69 65.51 455.53 65.40 445.71&#10;  Q 65.08 418.20 65.31 389.44&#10;  A 0.69 0.69 0.0 0 1 66.00 388.75&#10;  L 76.98 388.75&#10;  Q 77.48 388.75 77.48 389.25&#10;  Q 77.54 417.28 77.49 445.24&#10;  Q 77.49 446.90 79.18 452.50&#10;  C 81.89 461.43 88.94 461.98 97.28 461.71&#10;  Q 110.72 461.27 110.75 447.68&#10;  Q 110.82 418.55 110.72 389.99&#10;  Q 110.71 388.63 112.07 388.67&#10;  L 121.96 389.00&#10;  Q 123.52 389.06 123.52 390.62&#10;  Q 123.54 420.18 123.46 448.25&#10;  C 123.44 453.73 123.18 458.31 119.25 462.37&#10;  C 113.35 468.48 107.95 473.61 99.42 474.39&#10;  C 88.71 475.38 81.79 473.85 73.69 466.81&#10;  Z"/>
    <path fill="#03132B"
          d="&#10;  M 179.62 474.93&#10;  C 165.21 475.97 152.82 469.72 146.98 456.25&#10;  Q 144.79 451.18 144.07 441.43&#10;  C 142.97 426.43 142.72 407.55 155.52 396.97&#10;  C 169.81 385.15 188.31 386.64 201.69 399.12&#10;  C 205.56 402.72 207.55 406.82 208.67 411.87&#10;  A 0.88 0.88 0.0 0 1 207.79 412.94&#10;  L 194.99 412.62&#10;  Q 194.54 412.61 194.21 412.32&#10;  Q 193.40 411.63 192.96 410.83&#10;  C 188.08 402.12 178.84 399.39 169.65 403.01&#10;  C 160.86 406.47 156.18 416.66 156.26 425.73&#10;  Q 156.28 427.95 155.64 429.62&#10;  Q 155.46 430.09 155.57 430.58&#10;  C 158.22 441.87 154.15 458.34 170.66 461.93&#10;  C 177.22 463.36 188.51 462.59 192.05 455.40&#10;  C 194.14 451.13 194.56 445.37 194.44 440.72&#10;  A 0.71 0.70 -2.0 0 0 193.69 440.03&#10;  Q 184.13 440.64 174.57 439.64&#10;  A 1.46 1.45 -87.2 0 1 173.26 438.19&#10;  L 173.25 429.07&#10;  A 1.74 1.73 -89.8 0 1 174.99 427.33&#10;  L 207.82 427.52&#10;  A 0.62 0.61 -89.1 0 1 208.43 428.16&#10;  C 208.17 434.76 209.05 442.44 207.56 448.88&#10;  C 206.96 451.48 206.84 454.23 205.74 456.57&#10;  C 200.76 467.20 191.42 474.08 179.62 474.93&#10;  Z"/>
    <path fill="#03132B"
          d="&#10;  M 286.82 400.86&#10;  L 286.73 389.39&#10;  A 0.63 0.63 0.0 0 1 287.36 388.75&#10;  L 340.12 388.75&#10;  A 0.63 0.63 0.0 0 1 340.75 389.38&#10;  L 340.75 400.87&#10;  A 0.63 0.63 0.0 0 1 340.12 401.50&#10;  L 322.24 401.50&#10;  A 0.63 0.63 0.0 0 0 321.61 402.13&#10;  L 321.79 472.67&#10;  A 0.63 0.63 0.0 0 1 321.15 473.31&#10;  L 309.38 473.22&#10;  A 0.63 0.63 0.0 0 1 308.75 472.59&#10;  L 308.75 402.21&#10;  A 0.63 0.63 0.0 0 0 308.12 401.58&#10;  L 287.45 401.48&#10;  A 0.63 0.63 0.0 0 1 286.82 400.86&#10;  Z"/>
</svg>
