<?xml version="1.0" standalone="no"?>
<!DOCTYPE svg PUBLIC "-//W3C//DTD SVG 20010904//EN"
 "http://www.w3.org/TR/2001/REC-SVG-20010904/DTD/svg10.dtd">
<svg version="1.0" xmlns="http://www.w3.org/2000/svg"
 width="944.000000pt" height="944.000000pt" viewBox="0 0 944.000000 944.000000"
 preserveAspectRatio="xMidYMid meet">
<metadata>
Created by potrace 1.14, written by Peter Selinger 2001-2017
</metadata>
<g transform="translate(0.000000,944.000000) scale(0.100000,-0.100000)"
fill="#000000" stroke="none">
<path d="M4575 9374 c-44 -31 -136 -100 -205 -153 -69 -53 -161 -123 -205
-154 -104 -73 -264 -218 -491 -443 -196 -194 -222 -227 -429 -533 -280 -414
-441 -843 -510 -1356 -24 -178 -40 -1136 -29 -1710 9 -453 11 -483 30 -525 24
-52 69 -94 134 -124 44 -20 60 -21 1210 -29 1259 -8 2370 -2 2459 15 102 18
162 63 209 153 38 73 37 178 -2 255 -36 71 -87 133 -134 162 l-37 23 -1620 5
-1620 5 0 760 c0 731 1 766 23 924 29 212 54 333 93 451 68 204 204 491 301
632 128 187 365 453 547 612 139 121 372 306 386 306 31 0 176 -116 345 -275
41 -38 131 -121 200 -183 69 -62 161 -154 205 -204 238 -273 329 -368 369
-387 68 -33 124 -37 203 -12 120 37 208 121 239 227 34 118 -6 192 -281 514
-73 85 -193 214 -267 286 -175 173 -466 427 -595 520 -57 41 -142 107 -188
147 -99 85 -180 136 -226 143 -29 4 -46 -4 -114 -52z"/>
<path d="M5137 6469 c-97 -23 -183 -100 -213 -191 -25 -77 -16 -188 21 -257
34 -62 71 -95 142 -128 l51 -24 704 -2 703 -2 53 24 c67 30 135 105 158 173
25 77 16 188 -21 257 -34 62 -71 96 -140 127 -50 22 -53 22 -735 27 -406 4
-700 2 -723 -4z"/>
<path d="M2875 3447 c-78 -30 -137 -88 -164 -160 -6 -16 -11 -74 -11 -130 0
-120 22 -180 85 -236 82 -72 -93 -66 1950 -66 1690 0 1843 1 1876 17 57 25
115 83 139 139 19 45 21 66 18 158 -4 117 -16 155 -71 211 -18 18 -54 44 -82
56 l-50 24 -1830 -1 c-1375 0 -1838 -3 -1860 -12z"/>
<path d="M1437 1723 l-97 -4 2 -847 3 -847 539 -3 539 -2 -6 125 c-3 69 -9
130 -12 136 -5 8 -115 9 -380 3 -205 -4 -384 -4 -399 0 l-26 6 -2 718 -3 717
-30 1 c-16 0 -74 -1 -128 -3z"/>
<path d="M6242 1713 c-11 -10 -55 -108 -97 -218 -43 -110 -103 -254 -133 -320
-30 -66 -96 -217 -147 -336 -52 -119 -126 -285 -165 -370 -101 -217 -190 -418
-190 -430 0 -6 56 -9 152 -7 l152 3 55 148 54 147 408 0 408 0 11 -42 c45
-174 54 -205 62 -220 8 -16 26 -18 158 -18 125 0 150 2 150 15 0 43 -161 481
-239 649 -114 244 -112 239 -183 446 -88 255 -212 543 -242 562 -6 4 -52 8
-102 8 -73 0 -96 -4 -112 -17z m271 -754 c81 -205 144 -376 141 -380 -6 -10
-446 -12 -546 -2 -39 3 -68 11 -68 17 0 14 290 706 303 724 5 6 13 12 17 12 4
0 73 -167 153 -371z"/>
<path d="M2610 1118 c0 -351 5 -632 10 -673 24 -160 138 -301 312 -383 83 -39
148 -52 266 -52 177 0 276 41 420 176 65 60 99 101 119 142 l28 57 3 659 c2
529 0 661 -10 668 -7 4 -63 8 -125 8 l-112 0 -3 -632 c-3 -697 -1 -673 -66
-741 -59 -62 -93 -72 -252 -72 -136 0 -149 2 -195 26 -65 33 -98 83 -130 193
l-25 88 0 569 0 569 -120 0 -120 0 0 -602z"/>
<path d="M4714 1706 c-206 -47 -367 -169 -449 -341 -51 -107 -72 -185 -86
-331 -19 -195 9 -514 55 -636 65 -175 205 -308 380 -364 107 -34 251 -42 356
-20 94 20 219 81 287 141 64 57 147 179 168 247 29 97 46 258 43 403 l-3 140
-345 0 -345 0 -3 -117 -3 -116 43 -7 c23 -4 117 -8 208 -9 l165 -1 -2 -88 c-3
-179 -58 -280 -179 -328 -50 -19 -77 -23 -174 -23 -97 0 -124 4 -174 23 -103
41 -171 123 -196 237 -12 51 -44 331 -43 374 1 79 24 233 42 283 54 156 165
256 316 287 144 30 273 -22 361 -146 51 -72 58 -74 227 -74 124 0 122 -2 86
97 -29 77 -66 130 -138 195 -127 115 -276 177 -441 184 -60 2 -118 -1 -156
-10z"/>
<path d="M7032 1598 l3 -123 215 -5 215 -5 3 -711 2 -711 123 -5 c67 -3 125
-4 130 -1 4 2 7 326 7 719 l0 714 190 0 190 0 0 125 0 125 -540 0 -541 0 3
-122z"/>
</g>
</svg>
